<svg id="Layer_1" data-name="Layer 1" xmlns="http://www.w3.org/2000/svg" viewBox="0 0 2298.51 1279.57"><path d="M1286.58,959.63h-226.2c-1.07-3-1.52-5.49,2.45-5.9,3.3-.33,6.65-.2,10-.2,15.67,0,31.34-.27,47,.12,5.8.15,9.1-1.82,11.88-6.83,9.83-17.72,15.27-36.9,19.4-56.5,6.67-31.68,10-63.83,12.36-96.07,4.92-67.54,5.23-135.21,5.23-202.88q0-202.5-.14-405a160.11,160.11,0,0,0-3.22-32.7c-4.24-20.05-17-32.15-37.67-34.41-9.57-1-19.28-1-28.92-1.09-13.94-.17-27.88,0-42.14,0-.89-3.57-1.49-6,2.5-6.53a37.77,37.77,0,0,1,5-.16q92.51,0,185,0c2,0,3.92.26,6.48.45l327,619.18c2.27-4,3.91-6.63,5.36-9.39Q1703.37,502.35,1818.79,283c28.55-54.25,57.21-108.44,85.48-162.83,3.36-6.46,7-9,14.45-8.92,58,.31,116,.17,174,.17h10.1c.78,3.56,1.48,6.14-2.57,6.51-3,.28-6,.12-9,.19-19.31.45-38.68,0-57.91,1.56-28.18,2.2-42.54,16.91-45.71,45.05a204.48,204.48,0,0,0-1.34,22.94q-.11,347,.07,694a223.25,223.25,0,0,0,3,35.75c2.61,15.95,12.59,26.71,28.17,30.39a241.82,241.82,0,0,0,39.43,5.44c13.6.91,27.32.24,41,.25,3.78,0,6.75.64,4.65,6.25-3.1.14-6.35.41-9.6.41q-152.51,0-305,0c-2.66,0-5.45.24-7.92-.51-1.2-.37-1.79-2.76-3.51-5.66,5-.21,8.56-.4,12.11-.5q26.46-.74,52.93-1.44c1,0,2-.13,3-.23,31.53-3.45,45.54-17.21,49.33-48.78a157.69,157.69,0,0,0,1.12-18.94q.08-354.51,0-709v-8.69l-1.78-.71c-1.56,2.65-3.24,5.23-4.66,7.94q-102.56,195.08-205.05,390.17c-43.08,82-86.33,163.89-129,246.09-4.43,8.55-9.51,11.84-18.46,10.53-2.28-.33-4.61-.31-7.65-.5l-348.77-660.7c-3.13,3.55-1.9,6.91-1.91,9.82q-.12,84-.06,168c0,115-.16,230,.11,345,.13,54.35,2.49,108.62,9.75,162.55,3.92,29.08,9.13,57.93,19.72,85.48,9,23.42,9.07,23.4,34,23.4,13,0,26,0,39,.05C1283.45,953.59,1287.65,952.63,1286.58,959.63Z"/><path d="M403.7,519.47V530.6q0,177.52.08,355a218.68,218.68,0,0,0,1.8,27.9c2.35,17.92,12,30.57,29.94,34.58A257.68,257.68,0,0,0,475,953.3c13.28.87,26.66.19,40,.25,3.38,0,7.17-.23,5.59,5.91a73.62,73.62,0,0,1-7.44.72q-154.5.06-309,0c-2,0-4.26.43-5.91-.36-1.49-.7-2.31-2.81-4.95-6.32,6.23,0,9.79.08,13.35,0,17.65-.45,35.3-.83,52.94-1.48a76.8,76.8,0,0,0,12.82-1.93c25.09-5.28,36.75-18.26,39-43.72.78-9,1.21-18,1.21-27q.09-344,0-688.08c0-7-.48-14-1.08-21-2.61-30.49-18.73-47.54-49.36-50.4-17.87-1.67-35.93-1.34-53.91-1.86-3.93-.11-7.88,0-11.88,0-1.26-3.56-1.8-6,2.21-6.51a58.12,58.12,0,0,1,7-.18h627c3.9,57.36,7.75,114,11.58,170.23-6.45,2.31-7-1.17-7.45-4.62-1.68-11.87-3.4-23.74-5-35.63-2.19-16.17-4-32.4-6.62-48.51a29.14,29.14,0,0,0-5.76-12.34c-7-9.16-16.53-15.4-26.59-20.78C771,148.19,747.72,141.29,723.94,136A695.43,695.43,0,0,0,589.21,119.7q-51.44-1.28-102.92.19c-14.51.4-29.19,3-43.35,6.45-22.81,5.52-36,20.42-38.06,44.35-.45,5.3-1.11,10.62-1.12,15.93q-.11,158-.06,316v8.43c2.8.42,5,1,7.17,1,40.66-.2,81.35.26,122-.93,37-1.09,73.95-3.89,109.87-13.57a192.67,192.67,0,0,0,36.21-13.94c18.23-9.19,27.46-24.56,26.8-45.43-.25-8,0-16,0-24,0-4.58,2.13-6,6.79-3.82.16,2.45.49,5.07.49,7.68q0,97.52,0,195c0,1.67,0,3.34-.07,5-.25,4.56-3,4.32-7.27,3.15,0-8.85-.49-17.82.09-26.72,1.67-25.54-10.91-41.5-33.27-51.4S626.11,529,602,525.82c-45.72-6-91.7-6.57-137.72-6.36C444.6,519.55,425,519.47,403.7,519.47Z"/><path d="M.06,788.69H14.17v264.74H2283.4V788.87h13.35c2.16,7.88,2.44,270.05.22,280H.06Z"/><path d="M2298,1.12V279.29h-14.53V15.91H14.73C14,45,14.5,74.2,14.41,103.34c-.09,29.33,0,58.66,0,88v88.28H0V1.64c.18-.17.41-.4.66-.62s.5-.55.78-.58A41.34,41.34,0,0,1,6.4,0Q1150.3,0,2294.19.09C2295.13.09,2296.06.58,2298,1.12Z"/><path d="M1274.45,1219c16.49,18.63,32.29,36.49,48.26,54.52-12.62,4.74-20.46,3-28.3-6q-18.72-21.45-37.42-42.92c-2.88-3.3-5.59-6.07-10.77-6-20,.33-40,.15-59.94.21a34.79,34.79,0,0,0-4.85.82v55.26h-16.49c-2-7-2.48-133.74-.46-146.72,2.4-.18,5-.52,7.53-.52,30,0,60-.37,89.91.18a98.14,98.14,0,0,1,28.36,4.5c19.47,6.39,29.69,21.8,29.44,41.65-.24,19.22-10.81,33.64-29.88,40.47C1285.26,1216.05,1280.49,1217.2,1274.45,1219Zm-92.89-17.57a21.2,21.2,0,0,0,3.65.77c27.66,0,55.32.17,83-.2a50.26,50.26,0,0,0,16.46-3.54c11.09-4.17,16.84-12.52,17-24.55.16-12.56-5-21.66-16.61-25.73a77.16,77.16,0,0,0-23.39-4.12c-24-.53-48-.22-72-.18-2.56,0-5.12.4-8.09.65Z"/><path d="M2126.14,1249.27l12-12.88c1.91,1.31,3.33,2.17,4.63,3.19,29.75,23.33,63.53,27.52,99.37,20.19a50.58,50.58,0,0,0,19.75-9c14.17-10.71,11.52-28-4.94-34.6-15.05-6-31.22-6.35-47.07-8.33-13.52-1.7-27.1-3.41-40.41-6.29a77.72,77.72,0,0,1-22.17-8.73c-19.56-11.34-21.8-34-5.35-49.61,8.69-8.26,19.38-12.86,30.87-15.6,32-7.63,62.82-5.14,92.16,10.4a96.68,96.68,0,0,1,9.3,5.85c2.17,1.5,4.15,3.28,7.28,5.8l-13.14,11.49c-10.63-8.59-21.85-14.85-34.71-18a117,117,0,0,0-60.26.9,51.69,51.69,0,0,0-16.12,7.62c-12.05,8.77-10.75,23,2.57,29.7,12.14,6.08,25.56,7.06,38.8,8.58,16.2,1.87,32.48,3.37,48.54,6.11a83.3,83.3,0,0,1,23.51,8c18.24,9.3,23.41,29,13.07,46.74-5.23,9-13.18,14.84-22.38,19.24-13.5,6.48-28,8.71-42.7,9.2-28.25,1-55-4.85-79.16-20.13C2135.17,1256.34,2131.1,1252.93,2126.14,1249.27Z"/><path d="M875.37,1149.24,861,1161.1c-13.71-11.85-29.29-18-46.49-20.26-16.38-2.11-32.71-1.56-48.47,3.42a52.34,52.34,0,0,0-18.22,9.78c-9.1,7.91-7.84,20.25,2.81,25.85a79.35,79.35,0,0,0,24.51,7.81c17.76,2.71,35.8,3.61,53.55,6.36,10.76,1.66,21.73,4.16,31.69,8.43,24.2,10.38,28.76,37.77,10.07,56.49-9.77,9.78-22.05,14.71-35.36,17.34-34.24,6.77-67,2.69-97.69-14.31-6.32-3.49-12-8.06-18.62-12.53l12-12.85c2.2,1.38,4.21,2.4,6,3.76,22.65,17.77,48.75,24,76.9,22.28a127.63,127.63,0,0,0,29.32-5.36,36.7,36.7,0,0,0,15.58-10.2c9.25-10.19,6.38-24.52-6.36-29.59-9.76-3.87-20.42-5.88-30.87-7.51-16.43-2.57-33.14-3.47-49.51-6.35a105.69,105.69,0,0,1-28.38-9.08c-24.31-12-26.25-38.35-4.53-54.77,11.76-8.88,25.49-12.85,39.84-14.81,26-3.56,51.24-1,75,10.92C860.72,1139.44,867.16,1144.15,875.37,1149.24Z"/><path d="M967.52,1143.43V1192h103.27v16.08H967.68v50.83h123.64v16H950.08V1129.22c6.94-2.07,128.5-2.49,139.46-.34v14.55Z"/><path d="M2067.63,1128.29v15.16H1945.46c-.59,16.4-.23,31.83-.28,48.53h103.69v16.08H1945.75v50.83h123.64v16H1928.15V1129.2C1935.25,1127.13,2045.53,1126.29,2067.63,1128.29Z"/><path d="M325.3,1235.61c-32.08,0-63.36.08-94.65-.09-4.39,0-6.58,1.87-8.44,5.46-4.74,9.16-10,18-14.52,27.32-2.67,5.54-6.17,8.16-12.35,7.37a71.41,71.41,0,0,0-9-.07c1.32-7.28,68.87-132,79.85-147.67h19.45l80.57,146.43c-6,2-11.33,1.57-16.28.89-2.27-.31-4.73-3.26-6.07-5.61C337.6,1258.67,331.72,1247.49,325.3,1235.61ZM235,1217.5c7.77,2.84,72.28,2.9,80.48.1-13.09-24.19-26.06-48.31-40.31-73.86C261.11,1169.62,248.1,1193.52,235,1217.5Z"/><path d="M1860.57,1159.24l-16.12,8.18c-1.39-1.6-2.54-2.77-3.51-4.07-8.61-11.49-20.38-18-34.08-21.17a100.13,100.13,0,0,0-46.57.41c-40.34,9.74-49.1,40.71-45.85,67.94,3.13,26.16,18.44,42.09,43.35,49a101.13,101.13,0,0,0,45.57,1.87c16.71-3,30.72-10.76,40.5-26.41l16.17,7.86a63.12,63.12,0,0,1-4.16,6.89c-10.35,13-23.93,21.11-39.74,25.41a118.45,118.45,0,0,1-68-1.25c-42.29-13.39-55.77-49.7-51.66-83.07,4.14-33.65,23.65-54.12,55.7-63a117.87,117.87,0,0,1,65.12.16,75.89,75.89,0,0,1,36.17,22.15C1855.84,1152.78,1857.84,1155.73,1860.57,1159.24Z"/><path d="M570.41,1128.11,502,1200.79l69.24,74.33c-12.12.24-21.61,3-30.15-7.12-13.76-16.25-29-31.25-43.54-46.81-2.26-2.42-4.32-5-8.45-9.86-2.81,4.12-4.54,7.45-7,10.11-14.48,15.63-29.43,30.84-43.59,46.76-5.21,5.85-10.71,8.34-18.21,7.43-2.83-.34-5.71-.28-10.84-.51l69.06-74.1-68.7-73.33c8.45,0,14.6-.49,20.62.23,2.52.3,5.09,2.81,7.06,4.88q22.76,23.84,45.28,47.92c2.27,2.41,4.44,4.92,7.31,8.12,2.85-2.73,5.25-4.82,7.42-7.13,14.42-15.24,29.11-30.24,43-46,5.65-6.4,11.6-9.38,19.89-8.21C562.89,1127.91,565.5,1127.85,570.41,1128.11Z"/><path d="M1543.43,1128.18l-78,147.14H1446c-25.8-48.62-51.64-97.34-78-147.13h19.86c22.22,41.77,44.67,84,68.08,128l68.07-128Z"/><path d="M79.52,1143.41H9.94v-15.16H166.28v15.17H97.13V1275H79.52Z"/><path d="M1606,1128h15.46c2.07,7.38,2.47,135.48.43,147.06H1606Z"/></svg>